<svg xmlns="http://www.w3.org/2000/svg" viewBox="0 0 114.28 36" fill="white">
  <path
    d="m0,8.94C0,3.75,4.11-.26,9.19.01c2.22.12,4.15.99,5.73,2.61.41.42.81.84,1.22,1.26.45.46.5.45.96-.02.7-.7,1.37-1.42,2.14-2.05,2.56-2.08,6.55-2.39,9.43-.76,3.02,1.72,4.53,4.41,4.62,7.84.06,2.44-.84,4.63-2.57,6.39-3.95,4.03-7.9,8.05-11.83,12.1-.91.94-1.32,2.1-.95,3.43.37,1.31,1.17,2.23,2.5,2.54,1.47.35,2.66-.17,3.69-1.27,1.44-1.54,2.93-3.04,4.42-4.54.32-.32.43-.58.27-1.07-.94-2.95,1.11-5.82,4.09-5.77,1.76.03,3.33,1.28,3.91,3.13.51,1.61-.12,3.54-1.46,4.58-1.26.98-2.65,1.12-4.11.61-.35-.12-.56-.06-.81.19-1.59,1.64-3.22,3.27-4.8,4.92-2.1,2.2-5.54,2.37-7.78.76-2.99-2.14-3.36-6.68-.81-9.28,3.81-3.87,7.59-7.77,11.41-11.64,1.21-1.23,2.08-2.59,2.3-4.37.28-2.44-.95-5.05-3.07-6.24-2.58-1.46-5.55-1.04-7.64,1.07-.44.45-.88.91-1.34,1.35-.24.23-.25.43-.01.66.63.64,1.25,1.28,1.87,1.93,1.41,1.49,1.8,3.82,1.02,5.74-1.43,3.54-5.85,4.6-8.66,1.91-2.03-1.94-2.28-4.99-.51-7.34.54-.72,1.2-1.32,1.84-1.94.58-.56.6-.64.05-1.19-.92-.92-1.77-1.91-2.98-2.47-2.95-1.36-6.72-.26-8.22,2.97-1.23,2.64-.76,5.4,1.26,7.48,3.16,3.24,6.32,6.46,9.49,9.69.42.43.75.88.52,1.53-.32.91-1.33,1.18-2.03.51-.68-.65-1.33-1.34-1.98-2.01-1.93-1.97-3.86-3.95-5.79-5.92-.94-.96-1.95-1.87-2.78-2.94C.57,12.83-.02,10.99,0,8.94H0Zm17,6.06c.8-.02,1.71-.56,2.21-1.72.5-1.14.3-2.2-.45-3.13-.55-.68-1.22-1.26-1.82-1.9-.22-.23-.39-.22-.6,0-.57.6-1.16,1.18-1.73,1.78-.88.93-1,2.03-.59,3.19.36,1.02,1.47,1.75,2.99,1.77,0,0,0,0,0,0Zm15.8,11.81c.9,0,1.69-.85,1.69-1.81,0-.9-.78-1.69-1.67-1.71-.95-.02-1.77.8-1.77,1.77,0,.91.85,1.75,1.75,1.75h0Z"
    stroke-width="0"
  />
  <path
    d="m52.83,25v-6.03h-5.33v6.03h-2.52v-14.28h2.52v5.84h5.33v-5.84h2.52v14.28h-2.52Zm13.81-.61c-.73.29-1.41.5-2.06.63-.6.12-1.21.18-1.83.19-1.58,0-2.78-.45-3.59-1.34-.81-.9-1.22-2.09-1.22-3.57v-1.26c0-.99.18-1.85.54-2.58.34-.71.88-1.3,1.55-1.7.67-.41,1.46-.61,2.37-.61.74,0,1.44.15,2.08.46.66.29,1.19.76,1.6,1.41.42.63.63,1.44.63,2.44,0,.29-.02.61-.06.94-.05.35-.12.69-.21,1.03h-6.17c.03.87.24,1.52.65,1.95.41.43,1.06.65,1.95.65.48,0,.97-.06,1.47-.17.55-.12,1.08-.29,1.6-.5l.69,2.04h0Zm-4.22-8.21c-.65,0-1.15.21-1.51.63-.35.41-.55.99-.61,1.76h4.03c.01-.06.02-.13.02-.19v-.19c0-.67-.19-1.18-.57-1.51-.37-.33-.86-.51-1.36-.5Zm14.73,8.92c-.71,0-1.29-.15-1.72-.44-.4-.27-.72-.65-.92-1.09-.6.56-1.18.97-1.74,1.24-.56.27-1.18.4-1.81.4-.94,0-1.63-.3-2.08-.9-.43-.6-.65-1.36-.65-2.29,0-.62.11-1.16.34-1.62.24-.48.62-.85,1.15-1.11s1.26-.4,2.18-.4c.36,0,.74.03,1.13.08.39.04.78.1,1.18.17v-1.24c0-.59-.16-.99-.48-1.2-.32-.22-.76-.34-1.3-.34-.42,0-.88.06-1.39.17-.49.11-1.02.29-1.6.52l-.69-2.06c1.41-.57,2.69-.86,3.84-.86,1.04,0,1.83.18,2.39.52.57.35.97.81,1.2,1.39s.34,1.19.34,1.85v4.09c0,.21.06.41.17.61.13.18.36.27.71.27h.23v2.23h-.48Zm-6.59-3.13c0,.38.08.68.25.9.17.21.41.32.74.32s.69-.08,1.09-.25c.41-.17.93-.56,1.57-1.18v-.9c-.71-.12-1.42-.19-2.14-.19-.55,0-.94.11-1.18.34-.22.22-.34.55-.34.97Zm8.69.02v-12.54h2.42v12.54c0,.21.05.41.15.61.11.18.32.27.63.27h.34v2.23h-.59c-.8,0-1.41-.15-1.83-.46-.42-.31-.71-.7-.88-1.18-.15-.47-.23-.97-.23-1.47h0Zm15.15-11.28l-4.37,8.55v5.73h-2.52v-5.69l-4.41-8.59h2.69l3.09,6.09,2.92-6.09h2.6,0Zm8.97,8.32v1.26c0,1.48-.41,2.67-1.22,3.57-.81.9-1.96,1.34-3.44,1.34s-2.63-.45-3.44-1.34-1.22-2.09-1.22-3.57v-1.26c0-1.48.4-2.67,1.2-3.55.81-.9,1.97-1.34,3.46-1.34s2.65.45,3.44,1.34c.81.88,1.22,2.07,1.22,3.55Zm-2.48,0c0-.85-.19-1.52-.57-2-.38-.49-.92-.74-1.62-.74s-1.24.25-1.62.74c-.38.48-.57,1.14-.57,2v1.26c0,.85.19,1.53.57,2.02.38.49.92.74,1.62.74s1.24-.25,1.62-.74.57-1.16.57-2.02v-1.26Zm11.11,5.96v-1.41c-.64.56-1.25.97-1.81,1.24-.53.25-1.11.38-1.7.38-.95,0-1.69-.32-2.21-.97-.52-.66-.78-1.58-.78-2.75v-7.14h2.42v6.85c0,1.18.43,1.76,1.3,1.76.35,0,.73-.08,1.13-.25.42-.17.92-.49,1.51-.97v-7.39h2.42v10.65h-2.29Z"
    stroke-width="0"
  />
</svg>
