<svg width="256" height="256" viewBox="0 0 256 256" fill="none" xmlns="http://www.w3.org/2000/svg">
<path d="M3.00345 66.6096C2.98043 31.4505 30.8613 4.21161 65.3268 6.09178C80.3838 6.91435 93.4609 12.7664 104.19 23.7653C106.952 26.6091 109.715 29.4528 112.501 32.2966C115.563 35.3989 115.862 35.3519 119.039 32.1791C123.805 27.4552 128.341 22.5197 133.567 18.2658C150.903 4.16461 178.024 2.07292 197.502 13.1189C218.015 24.7524 228.238 42.99 228.813 66.2806C229.228 82.8495 223.127 97.6558 211.385 109.618C184.586 136.928 157.764 164.214 131.103 191.664C124.91 198.057 122.148 205.906 124.68 214.931C127.19 223.815 132.646 230.066 141.648 232.182C151.594 234.532 159.698 231.03 166.697 223.58C176.505 213.145 186.612 202.992 196.696 192.816C198.837 190.654 199.62 188.891 198.561 185.601C192.184 165.577 206.112 146.117 226.281 146.47C238.253 146.681 248.843 155.165 252.803 167.715C256.257 178.644 252.02 191.688 242.88 198.785C234.316 205.436 224.922 206.353 214.999 202.945C212.628 202.123 211.178 202.546 209.52 204.238C198.699 215.378 187.694 226.377 176.942 237.611C162.668 252.511 139.392 253.639 124.197 242.781C103.89 228.28 101.404 197.493 118.717 179.89C144.549 153.638 170.243 127.245 196.097 101.017C204.294 92.6969 210.234 83.4606 211.661 71.3805C213.595 54.8351 205.192 37.185 190.871 29.1003C173.397 19.2059 153.229 22.0262 139.069 36.3389C136.053 39.3942 133.083 42.52 129.998 45.5047C128.364 47.0794 128.341 48.3955 129.929 49.9936C134.189 54.318 138.425 58.6424 142.592 63.0608C152.124 73.1667 154.771 88.9601 149.522 101.957C139.829 125.952 109.83 133.12 90.7902 114.906C77.0224 101.745 75.3187 81.0869 87.3137 65.176C90.9744 60.311 95.4639 56.2217 99.8152 52.0383C103.752 48.2545 103.913 47.7139 100.161 43.9536C93.9444 37.7256 88.1656 31.0275 79.9464 27.2436C59.9624 18.0308 34.3608 25.5045 24.2076 47.3379C15.8963 65.1995 19.0505 83.9776 32.7722 98.0554C54.1836 120.006 75.6641 141.863 97.1215 163.767C99.9534 166.658 102.187 169.713 100.644 174.108C98.4799 180.289 91.619 182.122 86.8993 177.586C82.2947 173.168 77.8973 168.491 73.4309 163.932C60.3308 150.559 47.2537 137.163 34.1306 123.79C27.7302 117.28 20.9154 111.146 15.2747 103.884C6.87132 92.9789 2.86531 80.4993 3.00345 66.6096ZM118.326 107.715C123.782 107.597 129.906 103.931 133.337 96.0812C136.698 88.3725 135.386 81.1339 130.275 74.8588C126.522 70.2524 122.009 66.3041 117.911 61.9797C116.438 60.4521 115.287 60.4756 113.813 62.0032C109.945 66.0691 105.916 70.0174 102.048 74.0833C96.0625 80.3818 95.1894 88.1845 97.9752 96.0812C100.416 102.967 104.759 107.674 118.303 107.691L118.326 107.715ZM225.521 187.786C231.622 187.786 237.009 182.028 236.963 175.542C236.917 169.431 231.645 164.049 225.636 163.932C219.167 163.814 213.618 169.337 213.641 175.918C213.641 182.075 219.397 187.786 225.544 187.786H225.521Z" fill="#FF8D51"/>
</svg>
